<?xml version="1.0" encoding="UTF-8" standalone="no"?>
<!-- Created with Inkscape (http://www.inkscape.org/) -->

<svg
   xmlns:dc="http://purl.org/dc/elements/1.1/"
   xmlns:cc="http://creativecommons.org/ns#"
   xmlns:rdf="http://www.w3.org/1999/02/22-rdf-syntax-ns#"
   xmlns:svg="http://www.w3.org/2000/svg"
   xmlns="http://www.w3.org/2000/svg"
   xmlns:sodipodi="http://sodipodi.sourceforge.net/DTD/sodipodi-0.dtd"
   xmlns:inkscape="http://www.inkscape.org/namespaces/inkscape"
   width="297mm"
   height="210mm"
   viewBox="0 0 1052.3622 744.09448"
   id="svg2"
   version="1.1"
   inkscape:version="0.91 r13725"
   sodipodi:docname="logo-01.svg">
  <defs
     id="defs4" />
  <sodipodi:namedview
     id="base"
     pagecolor="#ffffff"
     bordercolor="#666666"
     borderopacity="1.0"
     inkscape:pageopacity="0.0"
     inkscape:pageshadow="2"
     inkscape:zoom="0.35"
     inkscape:cx="298.62384"
     inkscape:cy="559.66963"
     inkscape:document-units="px"
     inkscape:current-layer="layer1"
     showgrid="false"
     inkscape:window-width="1366"
     inkscape:window-height="717"
     inkscape:window-x="0"
     inkscape:window-y="0"
     inkscape:window-maximized="1" />
  <metadata
     id="metadata7">
    <rdf:RDF>
      <cc:Work
         rdf:about="">
        <dc:format>image/svg+xml</dc:format>
        <dc:type
           rdf:resource="http://purl.org/dc/dcmitype/StillImage" />
        <dc:title></dc:title>
      </cc:Work>
    </rdf:RDF>
  </metadata>
  <g
     inkscape:label="Capa 1"
     inkscape:groupmode="layer"
     id="layer1"
     transform="translate(0,-308.26772)">
    <path
       id="path4240"
       d="m 282.8331,645.72429 0.63437,-120.42874 -121.06311,0 -121.063083,0 0,121.06308 0,121.06312 120.428743,-0.63438 120.42874,-0.63433 0.63434,-120.42875 z"
       style="fill:#ff0000;fill-opacity:0"
       inkscape:connector-curvature="0" />
    <path
       inkscape:connector-curvature="0"
       style="fill:#000000;fill-opacity:0;stroke:#000000;stroke-width:22.49633408;stroke-miterlimit:4;stroke-dasharray:none;stroke-opacity:1"
       d="m 24.224502,698.20992 0,-139.37946 138.156828,0 138.15683,0 0,139.37946 0,139.37946 -138.15683,0 -138.156828,0 0,-139.37946 z"
       id="path4242" />
    <path
       inkscape:connector-curvature="0"
       style="fill:#000000;fill-opacity:1"
       d="m 150.40227,745.65265 c -8.0916,-14.47746 -6.80514,-16.59429 1.99934,-3.28984 6.19128,9.35566 7.2265,9.92965 15.64068,8.6721 4.95582,-0.7407 20.0142,-2.57753 33.4631,-4.08187 13.44889,-1.50434 24.81373,-3.08638 25.25517,-3.51563 0.44145,-0.42927 -6.71091,-4.29338 -15.89415,-8.58695 -56.48679,-26.40995 -62.76018,-31.12002 -89.51272,-67.20621 -7.97628,-10.75912 -14.94169,-20.02485 -15.47873,-20.59052 -1.72363,-1.81563 -13.6245,10.6081 -15.96089,16.66211 -1.74705,4.52691 -0.85746,8.53241 3.92731,17.68308 5.69265,10.88701 6.18004,14.32044 6.11163,43.05246 -0.0884,37.14159 -3.62371,35.62506 -5.4601,-2.3422 -1.08845,-22.50408 -2.17443,-27.77418 -7.64808,-37.11421 -9.5861,-16.35746 -8.28319,-24.22413 6.61987,-39.96932 11.51831,-12.16916 15.35744,-10.57417 34.68308,14.40934 24.02472,31.05832 35.22586,40.2956 69.88686,57.6339 56.85042,28.43795 57.80456,33.53448 6.72832,35.9386 -19.27523,0.90726 -37.94457,2.21281 -41.48741,2.9012 -5.63318,1.09454 -7.24863,-0.19249 -12.87328,-10.25604 z"
       id="path4236" />
    <path
       style="fill:#000000;fill-opacity:1"
       d="m 416.09099,772.55931 c -0.97727,-0.85945 -1.77683,-6.13345 -1.77683,-11.71999 0,-8.59465 0.82007,-10.15731 5.33042,-10.15731 2.93174,0 5.33043,1.02172 5.33043,2.27046 0,1.2487 -1.79903,1.66324 -3.99779,0.92122 -3.16387,-1.06778 -3.99784,0.71125 -3.99784,8.5283 0,7.96396 0.80131,9.60709 4.13626,8.48159 2.37181,-0.80045 3.44164,-0.4075 2.5079,0.92122 -1.8851,2.68259 -4.98701,2.99328 -7.53255,0.75451 z"
       id="path4467"
       inkscape:connector-curvature="0" />
    <path
       style="fill:#000000;fill-opacity:1"
       d="m 449.00183,751.0175 c -1.39661,0.13399 -2.78478,2.82098 -3.89705,8.03538 -0.98203,4.60371 -2.41323,10.14061 -3.17987,12.30516 -1.07673,3.04002 -0.39663,2.86913 2.98685,-0.75211 4.38021,-4.68801 4.3793,-4.68801 8.48798,0 4.10868,4.688 4.1083,4.688 2.69899,0 -0.77509,-2.57841 -2.19272,-8.11529 -3.15159,-12.30517 -1.14375,-4.99794 -2.5487,-7.41727 -3.94531,-7.28326 z m -0.04,9.04042 c 1.46586,0 2.66571,1.05534 2.66571,2.34455 0,1.28921 -1.19985,2.3429 -2.66571,2.3429 -1.46591,0 -2.6657,-1.05369 -2.6657,-2.3429 0,-1.28921 1.19979,-2.34455 2.6657,-2.34455 z"
       id="path4465"
       inkscape:connector-curvature="0" />
    <path
       style="fill:#000000;fill-opacity:1"
       d="m 473.42921,761.81599 0.48041,-12.30597 0.99136,10.98567 c 0.71066,7.87559 2.27238,11.2825 5.51631,12.03407 3.23683,0.74996 2.81784,1.12581 -1.47177,1.32031 -5.55326,0.25178 -5.96116,-0.63813 -5.51631,-12.03408 z"
       id="path4461"
       inkscape:connector-curvature="0" />
    <path
       style="fill:#000000;fill-opacity:1"
       d="m 499.60092,770.71625 c 0,-1.87313 1.43098,-6.16785 3.17997,-9.54382 2.59326,-5.00558 2.47033,-6.53305 -0.66629,-8.27838 -2.9856,-1.66135 -2.5044,-2.14829 2.15045,-2.17617 7.10711,-0.0422 7.12885,0.0759 1.99892,10.87364 -4.90874,10.33238 -4.95204,9.62338 0.66629,10.91465 3.50985,0.80671 3.18004,1.1393 -1.33263,1.3439 -3.60914,0.16364 -5.99671,-1.08406 -5.99671,-3.13382 z"
       id="path4459"
       inkscape:connector-curvature="0" />
    <path
       style="fill:#000000;fill-opacity:1"
       d="m 533.84674,751.96762 c -2.58255,-0.0181 -7.78752,13.6266 -7.26995,19.80975 0.2099,2.50789 0.64481,2.3402 1.51423,-0.58573 0.67033,-2.25606 2.84175,-4.10172 4.82555,-4.10172 1.98383,0 4.25504,1.84566 5.04687,4.10172 0.79182,2.25613 0.81764,-0.64488 0.0583,-6.44627 -0.75939,-5.80141 -2.4223,-11.46488 -3.69571,-12.58638 -0.14639,-0.12892 -0.30706,-0.19016 -0.47923,-0.19137 z m -1.29292,6.55778 c 0.2424,0.0323 0.53124,0.39202 0.8503,1.09323 0.77007,1.69204 0.67595,3.71386 -0.20966,4.49276 -0.88563,0.77889 -1.51671,-0.60573 -1.40108,-3.07671 0.0799,-1.70664 0.35646,-2.5631 0.76044,-2.50928 z"
       id="path4457"
       inkscape:connector-curvature="0" />
    <path
       style="fill:#000000;fill-opacity:1"
       d="m 558.95294,750.93429 c -3.08788,0.15432 -3.38289,2.40765 -3.38289,11.46818 0,11.15142 0.44562,11.99018 5.99701,11.2968 5.20428,-0.65004 5.997,-2.14273 5.997,-11.2968 0,-9.15402 -0.79272,-10.64675 -5.997,-11.29679 -1.04089,-0.13001 -1.90153,-0.207 -2.61412,-0.17139 z m 3.44112,2.09163 c 3.16353,0 3.96049,2.06101 3.3313,8.60946 -1.18818,12.3655 -7.4896,13.17459 -7.4896,0.96179 0,-7.10976 1.06909,-9.57125 4.1583,-9.57125 z"
       id="path4453"
       inkscape:connector-curvature="0" />
    <path
       style="fill:#000000;fill-opacity:1"
       d="m 588.31062,750.93429 c -3.05564,0.12305 -3.42282,2.13613 -3.42282,9.74264 0,5.67619 0.79985,11.02307 1.77714,11.88251 3.76345,3.30991 8.8511,1.32216 10.38659,-4.05846 2.77976,-9.74064 0.35498,-16.58072 -6.16672,-17.3953 -1.01996,-0.12739 -1.86904,-0.19978 -2.57419,-0.17139 z m 2.51761,2.59083 c 1.72014,0.10641 3.60598,2.66291 4.26313,7.58444 0.89368,6.69335 -2.44089,12.02691 -5.71746,9.14526 -1.00164,-0.88096 -1.8204,-5.20638 -1.8204,-9.61117 0,-4.88088 1.55459,-7.22494 3.27473,-7.11853 z"
       id="path4449"
       inkscape:connector-curvature="0" />
    <path
       style="fill:#000000;fill-opacity:1"
       d="m 644.07407,750.68137 c -4.02048,0 -5.59451,2.16265 -6.93216,9.51966 -0.95192,5.23502 -1.08284,10.43722 -0.29286,11.56136 0.78995,1.12409 4.81303,1.95868 8.94059,1.85534 6.39064,-0.15981 7.32713,-1.00159 6.31149,-5.67418 -0.65597,-3.01791 -2.38381,-4.83937 -3.83881,-4.04848 -1.67353,0.90961 -1.9726,-1.25325 -0.81536,-5.88718 1.5613,-6.25167 1.06634,-7.32652 -3.37289,-7.32652 z m -0.39436,2.34455 c 1.55235,0 2.08069,1.05535 1.17477,2.34455 -0.90599,1.2892 -2.1757,2.34289 -2.82212,2.34289 -0.64643,0 -1.17477,-1.05369 -1.17477,-2.34289 0,-1.2892 1.26973,-2.34455 2.82212,-2.34455 z m -2.95524,9.64446 c 0.9358,0.0161 2.10232,0.52678 3.37455,1.64568 2.40384,2.11405 2.41435,3.42415 0.0433,5.50945 -2.37101,2.08529 -3.52725,1.78264 -4.8605,-1.27295 -1.55237,-3.55787 -0.61607,-5.91775 1.44268,-5.88218 z"
       id="path4445"
       inkscape:connector-curvature="0" />
    <path
       style="fill:#000000;fill-opacity:1"
       d="m 696.67595,751.12066 c -1.35894,0.0315 -2.58653,2.67766 -3.70736,7.93222 -0.98201,4.60371 -2.41156,10.14061 -3.17821,12.30516 -1.07669,3.04002 -0.39829,2.86913 2.98519,-0.75211 4.32859,-4.63275 4.42558,-4.6345 8.21342,-0.13812 4.61475,5.47796 4.73291,4.18359 0.85196,-9.37156 -1.91508,-6.68888 -3.62488,-10.01131 -5.165,-9.97559 z m 1.76882,6.5927 c 0.57609,0 1.04664,1.58219 1.04664,3.51601 0,1.93379 -1.16098,3.516 -2.58084,3.516 -1.41981,0 -1.89209,-1.58221 -1.0483,-3.516 0.84375,-1.93382 2.00642,-3.51601 2.5825,-3.51601 z"
       id="path4439"
       inkscape:connector-curvature="0" />
    <path
       style="fill:#000000;fill-opacity:1"
       d="m 722.64576,772.60815 c -1.00777,-0.88632 -1.83232,-6.18229 -1.83232,-11.76883 0,-8.59465 0.82007,-10.15731 5.33043,-10.15731 2.93172,0 5.33041,1.02172 5.33041,2.27046 0,1.2487 -1.799,1.66324 -3.99779,0.92122 -3.1537,-1.06434 -3.99783,0.68341 -3.99783,8.27752 0,9.00868 3.16732,12.67497 6.24104,7.22415 0.74512,-1.32142 1.06997,-1.12362 0.72181,0.43952 -0.76182,3.42059 -5.25282,5.02973 -7.79575,2.79327 z"
       id="path4435"
       inkscape:connector-curvature="0" />
    <path
       style="fill:#000000;fill-opacity:1"
       d="m 748.67251,768.65615 c -2.82203,-9.8887 -0.43486,-16.73211 6.12238,-17.55117 3.2982,-0.41195 5.99672,0.26189 5.99672,1.49756 0,1.23563 -2.09825,2.1001 -4.66283,1.92104 -4.96477,-0.3468 -7.69495,7.64032 -4.84463,14.17285 1.34111,3.07371 2.22803,3.13535 5.97459,0.41553 3.76102,-2.7303 4.20801,-2.68356 3.07916,0.32221 -2.27059,6.04539 -9.86266,5.53915 -11.66539,-0.77785 z"
       id="path4433"
       inkscape:connector-curvature="0" />
    <path
       style="fill:#000000;fill-opacity:1"
       d="m 776.78287,762.40199 c 0,-10.67197 0.53625,-11.69566 5.99672,-11.44809 4.51267,0.20447 4.84248,0.5372 1.33262,1.34391 -2.56526,0.58956 -4.66412,2.49947 -4.66412,4.2442 0,1.7447 2.09886,3.65462 4.66412,4.24418 4.44202,1.02095 4.44202,1.08493 0,1.34391 -2.72116,0.15857 -4.66412,2.15318 -4.66412,4.78803 0,2.48386 2.09886,4.99851 4.66412,5.58804 3.50986,0.80671 3.18005,1.1393 -1.33262,1.3439 -5.46047,0.24745 -5.99672,-0.77611 -5.99672,-11.44808 z"
       id="path4431"
       inkscape:connector-curvature="0" />
    <path
       style="fill:#000000;fill-opacity:1"
       d="m 805.21182,772.55931 c -3.47724,-3.05812 -1.71087,-5.9952 1.9837,-3.29852 6.10073,4.4529 7.3046,-1.0435 1.51455,-6.9149 -2.90129,-2.94206 -5.27508,-6.27569 -5.27508,-7.40809 0,-3.37316 8.12709,-5.07778 11.22392,-2.35419 2.04982,1.80281 1.23702,2.14854 -2.84437,1.20988 -7.25095,-1.66763 -7.26699,0.99284 -0.0466,7.75215 3.2084,3.00358 4.97938,6.88316 4.08147,8.94107 -1.62551,3.72555 -7.46445,4.86319 -10.63744,2.0726 z"
       id="path4429"
       inkscape:connector-curvature="0" />
    <path
       style="fill:#000000;fill-opacity:1"
       d="m 834.52914,772.55931 c -0.97729,-0.85945 -1.77684,-6.13345 -1.77684,-11.71999 0,-8.59465 0.82008,-10.15731 5.33043,-10.15731 2.93174,0 5.33043,1.02172 5.33043,2.27046 0,1.2487 -1.88095,1.63559 -4.17987,0.85973 -3.43244,-1.15837 -4.02817,0.2171 -3.33152,7.69158 0.53486,5.73859 2.07946,8.88569 4.17988,8.5162 1.83232,-0.32222 3.33151,0.46878 3.33151,1.75798 0,2.63635 -6.15896,3.17802 -8.88402,0.78135 z"
       id="path4427"
       inkscape:connector-curvature="0" />
    <path
       style="fill:#000000;fill-opacity:1"
       d="m 867.29593,750.68137 c -4.56145,0 -5.19224,1.56597 -4.96033,12.30683 0.20904,9.68217 0.72056,11.05679 2.39946,6.44628 1.32829,-3.64769 2.23402,-4.3642 2.39947,-1.89695 0.62128,9.26976 4.31068,5.17216 4.82555,-5.35969 0.49004,-10.02444 -0.10685,-11.49647 -4.66415,-11.49647 z m 0.10483,2.34455 c 1.46589,0 2.66404,1.52018 2.66404,3.37789 0,1.8577 -1.19815,4.02878 -2.66404,4.82556 -1.46588,0.79677 -2.6657,-0.72174 -2.6657,-3.37622 0,-2.65448 1.19982,-4.82723 2.6657,-4.82723 z"
       id="path4425"
       inkscape:connector-curvature="0" />
    <path
       style="fill:#000000;fill-opacity:1"
       d="m 889.52039,762.40199 c 0,-7.09061 0.49966,-9.99127 1.11033,-6.44598 0.61066,3.54527 0.61066,9.34668 0,12.89195 -0.61067,3.54532 -1.11033,0.64463 -1.11033,-6.44597 z"
       id="path4421"
       inkscape:connector-curvature="0" />
    <path
       style="fill:#000000;fill-opacity:1"
       d="m 914.04059,751.85448 c -4.0979,0 -5.5268,1.81263 -6.18337,7.8407 -0.46975,4.31261 -0.1745,9.40042 0.65727,11.30677 0.83177,1.90635 3.61533,3.11091 6.18504,2.67569 3.62476,-0.61395 4.67246,-3.15001 4.67246,-11.30844 0,-8.95319 -0.7931,-10.51472 -5.3314,-10.51472 z m 0,1.17144 c 2.77907,0 3.99855,2.45854 3.99855,8.06534 0,7.88809 -2.89081,12.05121 -6.29153,9.06039 -0.93737,-0.8244 -1.70392,-5.01431 -1.70392,-9.31165 0,-5.38251 1.24286,-7.81408 3.9969,-7.81408 z"
       id="path4419"
       inkscape:connector-curvature="0" />
    <path
       style="fill:#000000;fill-opacity:1"
       d="m 938.47237,772.55931 c -3.47722,-3.05812 -1.71088,-5.9952 1.98372,-3.29852 5.97474,4.36095 7.39607,-1.04963 1.50698,-5.73681 -6.8688,-5.46705 -6.92302,-12.84197 -0.0944,-12.84197 2.84527,0 5.99386,1.16779 6.99679,2.5951 1.22733,1.74634 -0.029,2.07803 -3.84047,1.01408 -7.12526,-1.98894 -7.21687,0.49511 -0.25865,7.00932 3.23941,3.03262 4.72718,6.61576 3.71267,8.94105 -1.72667,3.9573 -6.80512,5.13356 -10.00681,2.31775 z"
       id="path4415"
       inkscape:connector-curvature="0" />
    <path
       style="fill:#000000;fill-opacity:1"
       d="m 359.54419,726.12399 c 0,-5.46814 2.08558,-5.50262 333.16702,-5.50262 331.08139,0 333.16699,0.034 333.16699,5.50262 0,5.46815 -2.0856,5.50257 -333.16699,5.50257 -331.08144,0 -333.16702,-0.034 -333.16702,-5.50257 z"
       id="path4413"
       inkscape:connector-curvature="0" />
    <path
       style="fill:#000000;fill-opacity:1"
       d="m 380.72102,708.06456 c -0.97034,-0.8534 -6.13209,-1.66086 -11.47057,-1.79434 -9.42973,-0.23574 -9.70231,-0.6031 -9.56799,-12.8927 l 0.1383,-12.64997 5.96609,9.92808 c 10.39745,17.30242 38.24344,21.58631 42.53625,6.54397 3.07404,-10.77195 -0.1649,-14.15053 -19.62646,-20.47264 -21.47125,-6.97495 -26.0241,-11.3861 -26.0241,-25.21421 0,-15.54836 11.77241,-22.7474 33.95887,-20.76647 9.21419,0.82265 17.40804,2.07181 18.20855,2.77581 0.80053,0.70401 1.00421,5.42287 0.45276,10.48625 l -1.00273,9.20623 -6.93322,-10.31738 c -5.91705,-8.80511 -8.54301,-10.31735 -17.91579,-10.31735 -8.3313,0 -12.2493,1.70028 -16.2299,7.04326 -4.88329,6.5546 -4.88807,7.35926 -0.0686,11.59789 2.84831,2.50502 13.13989,7.0736 22.87015,10.15236 10.35506,3.27643 20.23048,8.61053 23.81441,12.86302 12.31064,14.60733 -4.31847,35.37983 -28.32283,35.37983 -4.96044,0 -9.81289,-0.69826 -10.78321,-1.55164 z"
       id="path4411"
       inkscape:connector-curvature="0" />
    <path
       style="fill:#000000;fill-opacity:1"
       d="M 667.30469 321.69141 C 652.5082 322.06799 637.29306 328.70224 629.75586 341.38672 C 622.4776 353.63545 622.99414 375.09147 630.79297 384.45312 C 634.12229 388.44965 641.67257 393.88354 647.57227 396.5293 C 664.48819 404.11535 694.27539 401.76357 694.27539 392.8418 C 694.27539 391.29602 691.14628 391.95876 687.32227 394.31445 C 667.58728 406.47138 647.22953 394.68032 644.87695 369.73047 L 643.44727 354.57617 L 675.11719 354.57617 C 694.80245 354.57617 706.78906 353.50137 706.78906 351.73633 C 706.78906 350.17452 704.78709 344.68618 702.3418 339.53906 C 696.47765 327.1957 682.10118 321.31482 667.30469 321.69141 z M 665.96875 324.3125 C 678.04353 324.3125 684.89062 330.85478 684.89062 342.39258 L 684.89062 351.82422 L 664.2168 351.82422 L 643.54297 351.82422 L 645.6582 344.25977 C 649.3708 330.97953 656.15934 324.3125 665.96875 324.3125 z "
       id="path4409"
       transform="translate(0,308.26772)" />
    <path
       style="fill:#000000;fill-opacity:1"
       d="m 890.08285,624.00047 c -24.40428,-0.0178 -46.86914,19.02247 -46.86914,39.72266 0,12.1224 11.54275,28.46688 24.2793,34.38086 22.42,10.41031 47.87116,4.97047 61.94141,-13.24024 20.16976,-26.10513 -2.28579,-60.83788 -39.35157,-60.86328 z m -0.0762,2.6543 c 6.70197,-0.0751 13.38184,1.74443 17.23633,5.49023 13.52892,13.14754 11.96012,55.90182 -2.375,64.73243 -9.20102,5.6679 -21.93346,5.20973 -30.80664,-1.10938 -6.82193,-4.8583 -7.38477,-7.25031 -7.38477,-31.35156 0,-21.79683 0.98048,-27.04464 5.95899,-31.88281 3.94442,-3.83323 10.66912,-5.80378 17.37109,-5.87891 z"
       id="path4405"
       inkscape:connector-curvature="0" />
    <path
       style="fill:#000000;fill-opacity:1"
       d="m 981.36011,708.06456 c -0.97038,-0.8534 -6.13209,-1.66086 -11.47058,-1.79434 -9.42972,-0.23574 -9.7023,-0.6031 -9.56799,-12.8927 l 0.1383,-12.64997 5.96609,9.92808 c 10.39746,17.30242 38.24347,21.58631 42.53627,6.54397 3.074,-10.77195 -0.1649,-14.15053 -19.62647,-20.47264 -21.47125,-6.97495 -26.02409,-11.3861 -26.02409,-25.21421 0,-15.54836 11.77242,-22.7474 33.95886,-20.76647 9.2143,0.82265 17.4081,2.07181 18.2085,2.77581 0.8006,0.70401 1.0042,5.42287 0.4528,10.48625 l -1.0028,9.20623 -6.9331,-10.31738 c -5.8968,-8.77497 -8.55942,-10.31735 -17.81054,-10.31735 -7.666,0 -12.30281,1.78992 -15.70581,6.0628 -7.0107,8.80291 -0.53196,15.78648 20.35218,21.93806 16.78087,4.94289 31.04647,15.47549 31.04647,22.92209 0,7.75659 -7.7011,18.37516 -16.0953,22.19279 -8.6209,3.9207 -25.09695,5.29396 -28.42278,2.36898 z"
       id="path4401"
       inkscape:connector-curvature="0" />
    <path
       style="fill:#000000;fill-opacity:1"
       d="m 450.26573,701.36228 c -5.49366,-4.83155 -6.25666,-9.17096 -6.25666,-35.58412 l 0,-30.08153 -8.60292,-1.14616 -8.60288,-1.14616 8.60288,-0.41213 c 8.04106,-0.38542 8.60292,-1.22083 8.60292,-12.79307 0,-11.92227 0.34767,-12.38081 9.38497,-12.38081 9.02027,0 9.385,0.47525 9.385,12.23008 l 0,12.23012 14.85957,1.03044 14.85957,1.0305 -14.85957,0.49591 -14.85957,0.49592 0,31.30304 c 0,33.20821 1.08667,35.86327 15.64164,38.21675 4.54848,0.7355 1.60332,1.42138 -7.03873,1.63925 -11.08083,0.27943 -16.45063,-1.02459 -21.11622,-5.12791 z"
       id="path4399"
       inkscape:connector-curvature="0" />
    <path
       style="fill:#000000;fill-opacity:1"
       d="m 513.61437,704.89426 8.6029,-1.14616 0,-34.02574 0,-34.02573 -8.6029,-1.14616 c -4.73157,-0.63041 -0.50834,-1.33166 9.38498,-1.55843 l 17.98789,-0.41211 0,35.58413 0,35.58411 8.60293,1.14617 c 4.7316,0.63041 -3.36298,1.14616 -17.9879,1.14616 -14.62493,0 -22.71947,-0.51575 -17.9879,-1.14616 z"
       id="path4397"
       inkscape:connector-curvature="0" />
    <path
       style="fill:#000000;fill-opacity:1"
       d="m 573.05261,704.89426 8.60292,-1.14616 0,-61.72146 0,-61.72145 9.38497,0 9.385,0 0,61.72145 0,61.72146 8.60291,1.14616 c 4.73162,0.6304 -3.36297,1.14616 -17.98791,1.14616 -14.62492,0 -22.71945,-0.51576 -17.98789,-1.14616 z"
       id="path4395"
       inkscape:connector-curvature="0" />
    <path
       style="fill:#000000;fill-opacity:1"
       d="m 734.94364,701.36228 c -5.49368,-4.83155 -6.25667,-9.17096 -6.25667,-35.58412 l 0,-30.08153 -8.60292,-1.14616 -8.60287,-1.14616 8.60287,-0.41213 c 8.04107,-0.38542 8.60292,-1.22083 8.60292,-12.79307 0,-11.92227 0.34767,-12.38081 9.38498,-12.38081 9.02027,0 9.385,0.47525 9.385,12.23008 l 0,12.23012 14.85955,1.03044 14.85958,1.0305 -14.85958,0.49591 -14.85955,0.49592 0,31.30304 c 0,33.20821 1.08667,35.86327 15.64163,38.21675 4.54849,0.7355 1.60333,1.42138 -7.03873,1.63925 -11.08081,0.27943 -16.45063,-1.02459 -21.11621,-5.12791 z"
       id="path4393"
       inkscape:connector-curvature="0" />
    <path
       style="fill:#000000;fill-opacity:1"
       d="m 802.42615,702.54142 c -3.89551,-3.42602 -4.91595,-10.85034 -4.91595,-35.76689 l 0,-31.44339 -8.60293,-0.27433 -8.60286,-0.27432 7.82079,-1.89886 c 6.53104,-1.58567 7.97947,-3.80915 8.78278,-13.48224 0.84173,-10.13586 1.89423,-11.58327 8.42302,-11.58327 6.54134,0 7.57967,1.44148 8.42305,11.693 0.95561,11.61604 1.05462,11.70389 15.03944,13.3433 l 14.07749,1.65022 -14.85957,0.4134 -14.85957,0.41341 0,29.73842 c 0,32.05908 2.25489,37.80387 15.64165,39.85036 4.38849,0.67087 1.39746,1.36004 -6.8153,1.57026 -9.60367,0.24593 -16.32639,-1.11189 -19.55204,-3.94878 z"
       id="path4391"
       inkscape:connector-curvature="0" />
    <path
       style="fill:#000000;fill-opacity:1"
       d="m 522.09202,612.59892 c -2.86123,-4.70198 -2.34876,-7.45223 2.12111,-11.38349 3.24168,-2.851 7.6399,-4.67177 9.77372,-4.04621 6.43498,1.88646 11.18859,10.78421 8.74877,16.37589 -3.14512,7.2083 -16.04105,6.6172 -20.6436,-0.94619 z"
       id="path4389"
       inkscape:connector-curvature="0" />
  </g>
</svg>
